<?xml version="1.0" standalone="no"?>
<!DOCTYPE svg PUBLIC "-//W3C//DTD SVG 20010904//EN"
 "http://www.w3.org/TR/2001/REC-SVG-20010904/DTD/svg10.dtd">
<svg version="1.0" xmlns="http://www.w3.org/2000/svg"
 width="629.000000pt" height="629.000000pt" viewBox="0 0 629.000000 629.000000"
 preserveAspectRatio="xMidYMid meet">
<metadata>
Created by potrace 1.14, written by Peter Selinger 2001-2017
</metadata>
<g transform="translate(0.000000,629.000000) scale(0.100000,-0.100000)"
fill="#000000" stroke="none">
<path d="M1570 5290 c0 -4 -11 -7 -24 -7 -29 0 -118 -52 -110 -64 3 -5 1 -9
-5 -9 -6 0 -17 -15 -26 -33 -16 -33 -20 -52 -30 -117 -3 -20 -8 -47 -10 -60
-3 -14 -8 -41 -11 -60 -3 -19 -21 -118 -40 -220 -19 -102 -36 -203 -39 -225
-3 -22 -7 -51 -10 -65 -6 -26 -11 -49 -21 -110 -10 -58 -14 -79 -19 -107 -4
-16 -8 -44 -10 -63 -3 -19 -7 -45 -10 -57 -11 -50 -15 -69 -20 -103 -3 -20 -8
-47 -11 -60 -3 -14 -7 -41 -8 -60 -2 -19 -7 -43 -11 -52 -11 -28 0 -90 23
-128 12 -19 22 -32 22 -27 0 4 11 0 24 -8 18 -12 45 -15 110 -13 53 2 86 -1
86 -7 0 -7 3 -7 8 0 4 6 39 10 77 10 39 0 73 -4 77 -10 5 -7 8 -7 8 0 0 6 32
10 75 10 43 0 75 -4 75 -10 0 -7 3 -7 8 0 4 6 39 10 77 10 39 0 73 -4 77 -10
5 -7 8 -7 8 0 0 6 32 10 75 10 43 0 75 -4 75 -10 0 -7 3 -7 8 0 4 6 39 10 77
10 39 0 73 -4 77 -10 5 -7 8 -7 8 0 0 6 32 10 75 10 43 0 75 -4 75 -10 0 -7 3
-7 8 0 4 6 39 10 77 10 39 0 73 -4 77 -10 5 -7 8 -7 8 0 0 6 45 10 115 10 70
0 115 -4 115 -10 0 -7 3 -7 8 0 4 6 95 10 237 10 142 0 233 -4 237 -10 5 -7 8
-7 8 0 0 6 52 10 138 9 121 -1 142 1 179 20 48 24 98 99 107 160 4 21 9 48 11
60 3 12 7 37 9 56 3 19 5 35 6 35 2 0 6 22 14 70 11 65 16 96 31 180 8 44 17
94 20 110 5 32 7 42 26 145 6 36 13 79 16 95 7 40 11 60 13 60 1 0 3 16 5 35
2 19 6 44 8 55 7 31 21 108 22 125 1 8 5 26 8 40 8 30 16 73 23 120 2 19 7 46
10 60 15 80 14 112 -7 150 -22 38 -57 64 -91 66 -10 1 -21 3 -25 4 -18 5 -50
5 -75 -2 -16 -4 -28 -3 -28 1 0 3 -16 6 -35 6 -19 0 -35 -2 -35 -5 0 -3 -11
-5 -25 -5 -14 0 -25 3 -25 6 0 7 -57 2 -71 -6 -5 -4 -9 -2 -9 3 0 9 -82 7
-107 -2 -7 -3 -13 -2 -13 2 0 4 -16 7 -35 7 -19 0 -35 -2 -35 -5 0 -3 -11 -5
-25 -5 -14 0 -25 3 -25 6 0 7 -57 2 -71 -6 -5 -4 -9 -2 -9 3 0 9 -82 7 -107
-2 -7 -3 -13 -2 -13 2 0 4 -16 7 -35 7 -19 0 -35 -2 -35 -5 0 -3 -11 -5 -25
-5 -14 0 -25 3 -25 6 0 7 -57 2 -71 -6 -5 -4 -9 -2 -9 3 0 9 -82 7 -107 -2 -7
-3 -13 -2 -13 2 0 4 -16 7 -35 7 -19 0 -35 -2 -35 -5 0 -3 -11 -5 -25 -5 -14
0 -25 3 -25 6 0 6 -86 3 -106 -5 -8 -3 -14 -2 -14 2 0 4 -16 7 -35 7 -19 0
-35 -2 -35 -5 0 -3 -11 -5 -25 -5 -14 0 -25 3 -25 6 0 7 -87 2 -107 -5 -7 -3
-13 -2 -13 2 0 4 -16 7 -35 7 -19 0 -35 -2 -35 -5 0 -3 -11 -5 -25 -5 -14 0
-25 3 -25 6 0 7 -87 2 -107 -5 -7 -3 -13 -2 -13 2 0 4 -16 7 -35 7 -19 0 -35
-3 -35 -6 0 -4 -16 -3 -35 1 -21 5 -35 4 -35 -2 0 -5 -5 -6 -12 -2 -16 10 -68
11 -68 1 0 -5 -5 -5 -12 -1 -16 10 -68 11 -68 1 0 -5 -5 -5 -12 -1 -16 10 -68
11 -68 1 0 -5 -6 -5 -12 -1 -17 10 -48 13 -48 4z"/>
<path d="M4230 5288 c0 -4 -6 -8 -13 -8 -19 0 -34 -35 -46 -110 -6 -36 -13
-77 -16 -92 -29 -162 -29 -163 -3 -174 18 -7 194 -11 280 -5 20 1 37 29 43 69
6 42 16 102 22 126 6 26 14 73 18 106 2 14 4 25 5 25 1 0 3 11 4 24 4 30 -44
53 -86 41 -15 -5 -28 -5 -28 -1 0 3 -16 6 -35 6 -19 0 -35 -2 -35 -5 0 -3 -11
-5 -25 -5 -14 0 -25 2 -25 5 0 3 -13 5 -30 5 -16 1 -30 -3 -30 -7z"/>
<path d="M849 5271 c-8 -9 -15 -20 -15 -26 -1 -5 -3 -13 -4 -17 -5 -16 -21
-102 -26 -143 -1 -11 -5 -29 -7 -40 -15 -63 -18 -133 -7 -140 18 -11 259 -13
292 -2 29 9 34 25 63 192 27 151 29 185 14 186 -8 1 -77 2 -155 3 -114 1 -143
-1 -155 -13z"/>
<path d="M1011 4665 c-1 -6 -49 -9 -127 -8 -106 1 -130 -2 -144 -15 -12 -12
-25 -59 -40 -147 -32 -187 -34 -203 -18 -217 14 -14 46 -16 66 -5 6 5 12 4 12
-2 0 -6 11 -6 29 -1 16 4 32 6 35 3 7 -7 106 -9 106 -2 0 3 11 4 25 1 15 -2
25 0 25 7 0 6 5 10 11 9 10 -3 13 10 23 90 1 12 5 25 9 28 3 3 3 12 0 20 -3 8
-1 14 5 14 5 0 8 11 7 25 -2 14 0 25 3 25 4 0 7 12 7 28 1 15 4 46 9 70 8 42
-5 79 -24 67 -5 -3 -11 1 -13 7 -3 7 -6 9 -6 3z"/>
<path d="M4097 4653 c-9 -2 -15 -9 -12 -14 4 -5 2 -9 -3 -9 -5 0 -9 -6 -9 -12
0 -7 -4 -29 -8 -48 -10 -50 -15 -81 -19 -115 -2 -16 -5 -30 -6 -30 -1 0 -4 -9
-5 -20 -2 -11 -6 -43 -10 -72 -7 -51 -7 -52 19 -59 38 -9 276 -11 276 -1 0 4
6 7 14 7 18 0 25 23 41 130 3 19 10 57 15 83 20 100 23 149 9 158 -14 9 -269
11 -302 2z"/>
<path d="M639 4023 c-13 -7 -19 -13 -14 -13 6 0 4 -4 -3 -9 -7 -4 -15 -19 -16
-32 -3 -23 -10 -60 -22 -124 -8 -45 -14 -86 -18 -121 -2 -17 -6 -36 -9 -41 -9
-15 29 -47 47 -40 8 3 17 1 20 -6 2 -7 5 -7 5 -2 1 6 45 9 114 9 144 -2 145
-2 162 101 3 17 7 41 10 55 3 14 7 40 10 58 3 17 7 47 10 65 3 17 8 44 11 58
3 16 -1 30 -10 38 -21 18 -263 21 -297 4z"/>
<path d="M4012 4032 c-27 -4 -48 -35 -56 -82 -3 -19 -8 -46 -11 -60 -3 -14 -8
-47 -11 -75 -3 -27 -8 -53 -10 -56 -12 -20 -13 -97 -2 -107 8 -6 65 -9 153 -7
148 3 165 5 166 14 0 3 2 15 5 26 2 11 6 36 9 55 2 19 4 35 5 35 2 0 9 33 14
70 3 17 7 39 10 51 2 12 7 44 11 72 6 46 4 51 -17 57 -23 8 -225 13 -266 7z"/>
<path d="M518 3396 c-9 -10 -20 -40 -24 -65 -4 -25 -8 -55 -11 -66 -2 -11 -6
-38 -9 -60 -3 -22 -8 -47 -11 -55 -12 -29 -14 -102 -3 -114 7 -10 47 -12 147
-11 76 1 143 3 150 4 13 1 34 54 38 96 1 17 10 68 19 115 29 149 28 161 -4
169 -8 2 -73 4 -144 5 -116 1 -132 -1 -148 -18z"/>
<path d="M1175 3400 c-85 -44 -122 -117 -141 -275 -2 -16 -6 -41 -9 -55 -4
-14 -8 -36 -10 -50 -2 -14 -4 -25 -5 -25 -1 0 -3 -11 -4 -25 -2 -14 -7 -41
-11 -60 -4 -19 -9 -46 -11 -60 -1 -14 -5 -36 -8 -50 -3 -13 -8 -42 -11 -65 -3
-22 -8 -47 -10 -55 -2 -8 -7 -35 -10 -60 -4 -24 -8 -47 -10 -50 -2 -3 -6 -26
-10 -50 -5 -39 -12 -83 -31 -190 -6 -32 -12 -59 -19 -90 -3 -14 -6 -40 -7 -57
-1 -18 -4 -33 -8 -33 -4 0 -6 -12 -5 -27 1 -16 -2 -39 -7 -53 -5 -13 -10 -41
-12 -61 -1 -19 -5 -40 -9 -46 -13 -20 0 -121 19 -146 21 -28 33 -34 109 -50
11 -2 30 0 43 4 12 5 22 5 22 1 0 -9 77 -8 86 0 3 4 12 4 18 2 23 -9 97 -10
102 -2 3 5 10 6 15 2 15 -9 99 -11 105 -3 2 5 11 6 18 3 23 -9 97 -10 102 -2
3 5 10 6 15 2 15 -9 99 -11 105 -3 2 5 11 6 18 3 23 -9 97 -10 102 -2 3 5 10
6 15 2 15 -9 99 -11 105 -3 2 4 17 4 32 0 15 -5 37 -4 50 0 12 5 22 5 22 1 0
-9 53 -8 68 2 7 4 12 4 12 -1 0 -10 52 -9 68 1 7 4 12 4 12 -1 0 -10 52 -9 68
1 7 4 12 4 12 -1 0 -10 52 -9 68 1 7 4 12 4 12 -1 0 -10 52 -9 68 1 7 4 12 4
12 -1 0 -10 52 -9 68 1 7 4 12 4 12 -1 0 -10 52 -9 68 1 7 4 12 4 12 -1 0 -7
163 -9 180 -3 3 2 10 1 15 0 30 -6 97 -5 101 1 2 5 11 6 18 3 23 -9 97 -10
102 -2 3 5 10 6 15 2 16 -9 100 -11 105 -2 3 5 10 5 16 2 22 -14 169 -6 195
11 13 9 27 14 30 11 6 -5 38 32 66 77 10 15 22 51 27 80 5 28 12 66 15 82 20
104 36 192 36 205 0 8 3 22 6 30 3 8 7 26 9 40 9 68 12 85 14 85 1 0 3 9 4 20
10 68 18 114 26 142 4 17 6 34 3 37 -3 3 0 13 8 23 12 15 12 16 -1 8 -13 -8
-13 -6 -2 8 8 9 12 26 11 39 -2 13 -1 28 3 33 3 6 9 29 12 51 4 22 8 51 11 64
3 14 7 39 10 55 3 17 7 44 10 60 3 17 8 41 10 55 2 14 11 63 20 110 20 111 29
195 21 223 -7 27 -49 77 -65 77 -6 0 -11 4 -11 10 0 5 -16 9 -35 7 -19 -1 -35
-6 -35 -10 0 -5 -5 -5 -12 -1 -17 11 -108 11 -108 1 0 -5 -5 -5 -12 -1 -17 11
-108 11 -108 1 0 -5 -5 -5 -12 -1 -17 11 -108 11 -108 0 0 -5 -5 -5 -12 1 -15
10 -569 10 -586 -1 -7 -4 -12 -4 -12 1 0 10 -91 10 -108 -1 -7 -4 -12 -4 -12
1 0 10 -91 10 -108 -1 -7 -4 -12 -4 -12 1 0 4 -24 7 -52 5 -29 -1 -60 -2 -68
-2 -8 0 -69 1 -135 3 -66 1 -126 -2 -132 -7 -8 -5 -13 -5 -13 0 0 11 -91 11
-108 0 -7 -4 -12 -4 -12 1 0 10 -91 10 -108 -1 -7 -4 -12 -4 -12 1 0 4 -24 7
-52 5 -29 -1 -57 -2 -63 -2 -5 0 -48 1 -95 3 -47 2 -95 -1 -107 -5 -13 -4 -23
-4 -23 0 0 12 -45 8 -75 -8z"/>
<path d="M3885 3410 c3 -5 0 -10 -8 -10 -14 0 -25 -27 -32 -75 -2 -11 -6 -36
-10 -55 -3 -19 -8 -48 -11 -65 -2 -16 -7 -41 -9 -55 -3 -14 -8 -36 -10 -50 -3
-14 -3 -37 0 -51 l6 -26 142 1 c79 1 150 6 160 11 17 11 38 90 53 200 3 28 8
53 10 56 10 18 14 98 5 104 -6 3 -9 11 -6 16 4 5 -54 9 -145 9 -98 0 -149 -4
-145 -10z"/>
<path d="M3789 2921 c-17 -15 -31 -40 -34 -61 -3 -19 -8 -42 -10 -50 -2 -8 -7
-35 -10 -60 -4 -24 -9 -49 -12 -53 -3 -5 -7 -28 -9 -51 -2 -22 -6 -52 -9 -66
-10 -49 -17 -85 -20 -110 -2 -14 -6 -38 -10 -55 -3 -16 -8 -43 -11 -60 -10
-53 -15 -66 -27 -62 -20 7 -47 -12 -47 -33 0 -14 7 -20 23 -21 103 -4 718 -1
722 3 3 3 8 16 10 29 4 22 1 24 -30 24 -19 0 -35 -4 -35 -9 0 -5 -6 -4 -12 1
-7 5 -33 8 -56 7 l-44 -2 7 62 c4 33 10 63 14 66 3 3 6 23 6 45 0 22 3 45 7
51 4 6 10 28 13 50 16 136 19 140 92 139 36 -1 42 2 46 22 4 24 4 25 -70 26
-30 1 -32 3 -31 34 1 19 5 36 10 39 4 3 6 9 4 13 -3 4 36 7 87 7 66 0 91 3 89
12 -1 7 3 12 10 12 6 0 9 2 6 6 -3 3 -2 20 2 38 l7 32 -158 1 c-105 0 -162 -4
-168 -11 -5 -6 -11 -29 -15 -51 -6 -46 -13 -80 -26 -150 -6 -27 -12 -63 -14
-80 -3 -16 -8 -48 -12 -70 -4 -22 -7 -48 -8 -57 0 -10 -3 -18 -6 -18 -3 0 -6
-13 -7 -28 -1 -15 -5 -41 -8 -57 -4 -17 -8 -39 -10 -50 -14 -86 -16 -90 -40
-81 -11 4 -14 13 -10 25 3 11 8 37 10 58 2 21 5 39 6 41 1 1 3 7 4 12 1 6 4
13 5 18 1 4 2 19 2 35 1 15 3 27 7 27 3 0 7 17 9 38 3 47 6 65 13 77 3 6 4 20
3 33 0 12 2 22 6 22 5 0 7 8 5 18 -1 9 0 21 3 26 5 8 13 67 15 109 1 9 4 17 7
17 3 0 6 16 7 35 2 19 4 41 5 47 2 10 -31 13 -136 14 -136 2 -138 2 -167 -25z
m146 -83 c-4 -18 -8 -44 -10 -58 -3 -14 -6 -36 -9 -50 -2 -14 -8 -43 -11 -65
-9 -52 -13 -70 -15 -70 -2 0 -9 -58 -13 -97 -1 -16 -4 -28 -7 -28 -3 0 -6 -8
-7 -17 -4 -49 -10 -83 -15 -89 -4 -3 -4 -12 -2 -19 7 -16 -32 -40 -41 -25 -3
5 -3 20 0 33 4 13 8 32 10 43 2 10 4 19 5 19 1 0 3 16 5 35 3 19 7 46 10 60 4
14 8 39 10 55 2 17 6 44 10 60 3 17 8 41 10 55 2 14 7 36 10 50 8 37 18 102
19 123 0 11 8 17 24 17 20 0 22 -3 17 -32z"/>
<path d="M4689 2934 c-13 -7 -20 -13 -15 -14 6 0 2 -6 -7 -12 -9 -7 -18 -24
-21 -38 -5 -33 -18 -100 -23 -125 -2 -11 -6 -36 -9 -55 -3 -19 -7 -42 -9 -50
-3 -8 -7 -33 -10 -55 -3 -22 -10 -62 -15 -90 -21 -110 -40 -221 -40 -241 0
-19 5 -20 63 -17 80 4 84 6 82 40 -1 15 1 33 4 38 6 11 7 15 16 70 3 22 8 47
10 55 2 8 7 33 10 55 3 23 7 50 9 60 2 11 7 40 11 65 7 42 9 53 19 98 2 9 7
40 10 67 4 28 11 54 15 58 9 9 43 -2 36 -12 -2 -4 -9 -36 -14 -72 -6 -35 -13
-73 -15 -84 -5 -30 -15 -86 -21 -125 -3 -19 -10 -57 -15 -85 -5 -27 -11 -61
-14 -75 -2 -14 -7 -41 -10 -60 -14 -82 -14 -90 -3 -91 121 -11 137 -2 140 72
1 21 5 39 8 39 3 0 6 6 6 13 1 16 13 98 18 117 2 8 6 31 9 50 3 19 8 46 11 60
10 50 13 66 20 110 4 25 9 54 11 65 3 11 7 38 10 60 3 22 9 57 14 78 4 20 5
39 1 41 -3 2 -65 3 -137 3 -90 0 -139 -4 -155 -13z"/>
<path d="M5047 2932 c-24 -15 -35 -34 -43 -72 -1 -8 -5 -26 -8 -40 -3 -13 -8
-42 -12 -65 -3 -22 -9 -58 -14 -80 -5 -22 -12 -60 -15 -85 -8 -51 -13 -75 -15
-75 -1 0 -3 -13 -5 -30 -2 -16 -6 -43 -9 -60 -3 -16 -9 -51 -12 -77 -4 -27 -9
-48 -13 -48 -11 0 -8 -60 3 -61 61 -4 86 -3 86 4 0 4 7 7 15 7 8 0 15 6 15 14
0 8 4 16 10 18 8 3 19 43 37 143 8 44 11 60 13 60 1 0 2 16 3 35 1 19 5 37 8
40 4 3 10 32 13 65 4 33 14 67 22 75 12 12 13 7 8 -40 -3 -30 -10 -72 -15 -92
-5 -20 -12 -55 -15 -78 -6 -44 -11 -72 -14 -80 -1 -3 -2 -9 -1 -14 1 -4 -4
-14 -10 -22 -9 -11 -9 -14 1 -14 8 0 9 -4 3 -12 -17 -23 -1 -107 21 -109 59
-3 225 1 242 6 25 8 51 50 59 96 3 19 8 41 10 49 3 8 7 37 10 64 4 28 8 53 11
57 2 4 6 26 9 50 3 23 10 63 16 88 6 25 12 63 14 84 2 21 9 53 14 72 5 19 6
35 3 35 -4 0 0 5 8 10 9 6 10 10 3 10 -7 0 -10 10 -7 26 3 18 -2 32 -16 44
-17 14 -39 17 -135 17 -153 0 -155 -3 -191 -174 -2 -13 -9 -23 -15 -23 -10 0
-6 65 6 110 2 8 6 31 9 51 l5 36 -43 0 c-23 0 -54 -6 -69 -15z m308 -74 c-2
-7 -6 -29 -9 -48 -3 -19 -7 -48 -10 -65 -3 -16 -8 -41 -10 -55 -3 -14 -5 -25
-6 -25 -1 0 -3 -9 -4 -20 -9 -61 -19 -115 -28 -155 -5 -25 -11 -58 -13 -75 -9
-83 -15 -97 -41 -101 -11 -2 -15 6 -13 29 2 18 5 36 8 41 2 5 6 22 8 38 6 55
12 93 13 93 4 0 30 146 33 183 0 12 3 22 7 22 3 0 5 10 6 23 1 12 4 40 8 62 4
22 8 46 8 53 1 6 12 12 24 12 14 0 22 -5 19 -12z"/>
<path d="M5545 2941 c-2 -4 -6 -18 -9 -32 -3 -13 -7 -35 -10 -49 -3 -14 -9
-45 -12 -70 -3 -25 -11 -51 -16 -57 -7 -9 -7 -13 1 -13 7 0 8 -8 2 -23 -11
-28 -20 -74 -27 -137 -3 -24 -8 -49 -12 -55 -5 -5 -8 -27 -7 -47 0 -21 -2 -38
-6 -38 -3 0 -6 -6 -6 -12 0 -7 -4 -31 -8 -53 -4 -22 -8 -58 -8 -80 l-2 -40 63
1 c35 1 65 4 68 7 5 5 8 20 19 92 3 22 8 47 10 55 3 8 7 29 9 45 3 17 7 41 10
55 2 14 7 39 9 55 3 17 8 48 12 70 3 22 8 49 9 60 2 11 12 21 23 23 19 3 21
-1 17 -35 -2 -20 -7 -51 -11 -68 -3 -16 -8 -39 -10 -50 -7 -46 -13 -91 -16
-110 -2 -11 -7 -26 -11 -33 -4 -7 -6 -15 -3 -18 2 -2 -1 -28 -7 -57 -21 -90
-20 -90 56 -91 73 -1 73 -1 84 79 1 11 9 58 18 105 21 115 25 139 32 180 3 19
7 45 9 57 2 12 -5 33 -15 46 -18 22 -18 25 -2 40 39 36 45 55 66 179 l4 27
-66 -2 c-73 -1 -86 -9 -88 -47 -3 -52 -10 -96 -18 -108 -4 -7 -4 -16 -1 -22 3
-5 3 -10 -2 -11 -4 0 -15 -2 -24 -4 -17 -3 -17 -4 -4 90 10 67 10 70 18 83 5
6 7 13 5 13 -14 6 -139 5 -143 0z"/>
<path d="M5915 2916 c-17 -17 -30 -38 -30 -46 1 -8 -1 -19 -4 -25 -3 -5 -6
-17 -8 -25 -3 -27 -16 -105 -19 -120 -2 -8 -6 -31 -8 -50 -3 -19 -16 -96 -30
-170 -39 -206 -37 -239 12 -241 244 -8 274 1 287 89 5 33 13 67 15 67 1 0 3
15 5 33 2 19 6 40 9 47 7 19 -4 26 -25 14 -11 -5 -19 -6 -19 -1 0 11 -81 3
-94 -9 -6 -5 -11 -17 -12 -26 -16 -122 -28 -163 -45 -163 -23 0 -23 11 -4 115
19 98 24 127 31 184 3 25 7 47 9 50 2 3 10 49 19 101 16 92 27 113 52 103 9
-3 10 -13 3 -36 -5 -18 -9 -36 -9 -42 0 -14 133 -13 143 2 4 6 10 42 13 80 8
94 4 97 -145 98 l-116 1 -30 -30z"/>
<path d="M407 2770 c-9 -9 -18 -29 -21 -45 -3 -17 -8 -41 -10 -55 -3 -14 -8
-43 -12 -65 -20 -129 -26 -160 -30 -166 -2 -3 3 -14 10 -25 12 -16 29 -18 151
-19 114 -1 142 2 158 16 11 9 21 22 23 30 1 8 5 32 8 54 4 23 8 50 10 62 3 11
7 36 10 54 3 19 10 58 15 86 11 55 7 82 -13 84 -6 1 -72 2 -147 3 -109 1 -138
-2 -152 -14z"/>
<path d="M295 2140 c-9 -10 -19 -31 -21 -47 -8 -49 -11 -68 -13 -68 -1 0 -4
-16 -6 -35 -2 -19 -6 -48 -10 -65 -3 -16 -8 -41 -10 -55 -2 -14 -6 -35 -9 -48
-3 -14 2 -29 14 -40 16 -14 38 -17 147 -16 74 1 138 6 150 12 16 9 24 30 37
99 8 49 18 102 21 118 3 17 8 44 10 60 3 17 7 40 9 52 9 45 -13 52 -163 52
-123 0 -141 -2 -156 -19z"/>
<path d="M3647 2142 c-8 -9 -18 -35 -22 -57 -5 -22 -9 -42 -10 -45 0 -3 -4
-27 -9 -53 -4 -27 -9 -58 -12 -70 -2 -12 -6 -39 -10 -62 -3 -22 -7 -42 -9 -44
-3 -2 0 -11 5 -21 10 -19 50 -34 50 -19 0 5 10 5 23 0 25 -10 57 -9 75 3 6 4
12 4 12 -1 0 -4 31 -8 69 -7 71 1 103 16 108 53 3 23 9 58 21 126 6 33 14 76
17 95 3 19 8 49 11 67 8 45 -10 51 -168 52 -116 0 -138 -2 -151 -17z"/>
<path d="M3157 1655 c-10 -25 32 -58 58 -45 3 1 8 3 13 5 28 8 42 20 42 36 0
24 -16 25 -29 2 -6 -10 -11 -14 -11 -9 0 5 -7 3 -15 -4 -12 -10 -16 -9 -22 6
-10 23 -29 28 -36 9z"/>
<path d="M4910 1598 c0 -5 -8 -7 -18 -4 -17 6 -26 0 -78 -43 -15 -12 -59 -189
-55 -221 3 -25 30 -64 39 -56 2 3 14 1 27 -4 13 -5 26 -6 30 -2 7 7 12 8 40
11 31 2 72 58 85 113 6 29 14 60 17 68 19 50 19 95 -1 115 -20 20 -86 38 -86
23z m14 -62 c-12 -66 -29 -126 -36 -126 -5 0 -6 -5 -3 -10 8 -13 -14 -80 -26
-80 -9 0 -13 16 -9 35 1 6 4 21 5 35 2 14 8 37 13 51 6 15 8 30 5 33 -4 3 -2
6 4 6 5 0 10 6 11 13 4 45 7 54 22 52 8 -1 14 -5 14 -9z"/>
<path d="M162 1585 c0 -5 -17 -71 -36 -145 -20 -74 -36 -141 -36 -147 0 -17
66 -17 76 -1 5 7 9 19 10 28 6 39 16 76 24 84 5 5 6 14 3 22 -2 7 0 21 6 31
10 18 8 -60 -4 -144 -5 -31 -3 -33 24 -33 26 0 47 21 43 43 -1 4 3 7 9 7 5 0
8 4 5 9 -3 5 0 21 8 37 7 16 20 45 29 64 20 44 22 14 2 -37 -7 -21 -16 -52
-19 -70 -2 -17 -7 -37 -11 -42 -4 -7 9 -11 38 -11 44 0 45 1 53 38 4 20 8 39
9 42 1 3 5 24 10 48 4 23 10 42 14 42 3 0 7 10 7 23 3 38 10 72 18 85 4 7 4
12 -1 12 -4 0 -1 5 7 10 13 9 13 10 0 11 -8 0 -28 2 -45 4 -59 5 -77 -7 -100
-68 -11 -31 -27 -63 -34 -69 -11 -11 -12 -10 -6 1 5 8 10 35 12 60 2 25 5 52
8 59 2 6 -3 13 -13 13 -72 5 -109 3 -110 -6z"/>
<path d="M503 1592 c-10 -7 -21 -40 -36 -112 -3 -14 -10 -40 -16 -57 -5 -18
-7 -33 -4 -33 3 0 0 -7 -7 -15 -7 -8 -10 -21 -7 -29 3 -8 3 -17 -1 -20 -3 -4
-7 -17 -9 -29 -3 -20 0 -22 42 -19 39 4 46 7 51 31 3 14 9 35 12 46 7 24 9 32
11 45 0 6 7 10 15 10 17 0 15 -22 -11 -113 -4 -16 1 -18 44 -15 40 2 48 6 49
23 1 11 3 25 4 30 1 6 2 13 1 18 0 4 4 7 10 7 6 0 8 7 5 17 -4 9 -2 19 4 23 5
3 11 25 13 47 1 23 5 39 10 36 4 -2 7 6 8 19 0 13 2 30 4 38 13 46 10 54 -17
53 -67 -2 -70 -3 -64 -18 3 -8 1 -15 -4 -15 -6 0 -9 -3 -9 -7 1 -5 0 -11 -1
-15 -1 -5 -3 -18 -4 -30 0 -13 -9 -24 -19 -26 -15 -3 -17 1 -11 30 14 70 12
81 -22 84 -17 1 -35 -1 -41 -4z"/>
<path d="M793 1585 c-40 -17 -57 -44 -78 -125 -29 -112 -30 -148 -5 -170 13
-11 27 -17 31 -14 5 3 9 0 9 -6 0 -6 5 -8 11 -4 6 3 26 8 45 10 65 6 89 37
117 154 15 58 24 115 21 127 -11 39 -91 54 -151 28z m61 -43 c4 -7 -17 -108
-32 -152 -3 -8 -7 -24 -9 -35 -5 -26 -19 -39 -32 -31 -7 5 -8 13 -2 24 5 9 9
20 10 25 0 4 3 24 8 45 9 48 10 51 13 57 1 3 3 8 5 13 17 64 26 75 39 54z"/>
<path d="M1002 1585 c0 -5 -6 -28 -12 -50 -6 -22 -13 -48 -15 -58 -2 -10 -7
-27 -10 -37 -3 -10 -8 -27 -10 -37 -2 -10 -8 -38 -14 -63 -6 -25 -11 -48 -11
-52 0 -5 20 -8 45 -8 37 0 51 7 44 23 -1 1 5 18 13 37 8 19 13 42 13 50 -1 8
4 26 11 40 6 14 10 33 9 42 -2 10 1 20 6 24 5 3 7 9 4 14 -8 13 26 28 52 24
16 -3 24 3 32 26 11 34 19 31 -90 34 -38 1 -66 -3 -67 -9z"/>
<path d="M1227 1583 c-35 -18 -49 -47 -76 -156 -19 -74 -21 -94 -11 -118 7
-16 20 -29 29 -30 15 0 34 -4 56 -10 6 -1 19 1 30 5 72 27 86 48 115 167 24
100 24 108 4 134 -18 24 -105 29 -147 8z m70 -65 c-3 -18 -8 -42 -11 -53 -3
-11 -11 -42 -18 -70 -7 -27 -17 -56 -21 -62 -14 -22 -26 -14 -22 15 5 33 22
107 25 107 2 0 7 21 12 50 5 27 17 45 30 45 7 0 8 -12 5 -32z"/>
<path d="M1462 1582 c-21 -19 -42 -54 -42 -71 0 -6 19 -11 44 -11 38 0 45 3
50 25 4 14 13 25 21 25 17 0 19 -18 5 -55 -7 -19 -15 -24 -33 -21 -14 2 -24
-1 -24 -7 0 -7 -2 -19 -4 -27 -2 -8 2 -15 9 -16 6 -1 16 -2 21 -3 10 -1 8 -28
-4 -74 -10 -36 -42 -33 -37 3 2 14 8 30 13 37 12 14 4 19 -43 22 -33 2 -39 -1
-48 -24 -15 -39 -12 -81 6 -96 22 -18 114 -18 146 0 22 11 46 45 54 74 1 4 2
8 3 10 10 12 7 60 -5 72 -9 8 -11 15 -5 15 32 0 57 98 32 123 -6 6 -40 12 -75
13 -49 2 -69 -1 -84 -14z"/>
<path d="M1720 1583 c0 -7 -5 -13 -11 -13 -5 0 -8 -4 -4 -9 3 -5 -1 -16 -9
-24 -8 -8 -13 -17 -10 -20 4 -3 2 -12 -2 -19 -5 -7 -9 -15 -10 -18 -4 -20 -27
-66 -37 -72 -9 -6 -9 -8 1 -8 10 0 10 -4 0 -22 -7 -13 -17 -26 -23 -30 -5 -4
-6 -8 -1 -8 5 0 3 -7 -4 -15 -7 -8 -9 -15 -5 -15 4 0 2 -6 -4 -14 -10 -11 -4
-15 29 -18 47 -4 50 -2 68 33 18 35 42 33 42 -3 l0 -28 89 0 c104 0 134 16
146 77 5 21 10 44 12 51 1 6 5 20 7 30 3 9 5 17 6 17 1 0 4 13 6 30 6 33 22
57 35 50 4 -3 6 -15 3 -28 -6 -24 -6 -25 -22 -82 -6 -22 -14 -55 -17 -74 -3
-19 -10 -42 -16 -52 -9 -17 -5 -19 41 -19 27 0 50 3 51 8 0 4 3 16 5 27 3 11
6 29 7 40 1 11 5 22 9 26 4 3 9 18 12 35 2 16 6 36 9 44 8 24 27 107 27 122 0
10 -24 13 -104 13 l-105 0 -5 -30 c-3 -16 -7 -34 -7 -40 -1 -5 -5 -20 -10 -33
-5 -12 -11 -35 -14 -50 -10 -45 -10 -47 -18 -59 -5 -7 -6 -13 -2 -13 3 0 1 -9
-5 -20 -6 -11 -18 -20 -26 -20 -10 0 -14 -6 -11 -15 4 -8 3 -17 -2 -19 -8 -6
-9 72 -1 89 3 6 5 43 5 82 0 40 3 73 6 73 8 0 4 38 -4 47 -14 13 -127 9 -127
-4z m46 -113 c-8 -69 -10 -74 -21 -82 -20 -15 -22 17 -4 59 10 25 19 51 19 59
0 8 3 14 6 14 3 0 3 -23 0 -50z"/>
<path d="M2201 1586 c-7 -10 -42 -138 -66 -247 -2 -11 -7 -29 -10 -40 -6 -18
0 -19 87 -19 60 0 100 5 110 13 9 6 23 35 32 62 34 108 28 125 -43 128 -23 1
-42 6 -42 10 -1 8 10 61 17 87 3 11 -6 15 -36 16 -22 1 -44 -4 -49 -10z m74
-182 c1 -13 -3 -24 -7 -24 -5 0 -8 -6 -7 -12 3 -27 -2 -38 -17 -38 -12 0 -15
8 -11 33 7 49 11 61 22 69 13 10 20 1 20 -28z"/>
<path d="M2454 1588 c-6 -9 -16 -55 -17 -75 0 -7 -5 -13 -10 -13 -6 0 -8 -3
-4 -6 3 -3 0 -26 -8 -50 -7 -24 -12 -44 -10 -44 2 0 -3 -21 -11 -47 -22 -74
-21 -79 31 -75 42 4 45 6 52 40 9 48 10 51 13 57 1 3 3 8 4 13 1 4 5 13 10 21
7 11 10 11 16 0 9 -16 -11 -109 -23 -109 -4 0 -5 -4 -2 -10 3 -5 26 -10 51
-10 24 0 44 5 44 10 0 18 2 25 11 41 4 9 11 29 13 45 3 16 10 44 16 63 5 19 7
38 4 42 -3 5 -1 9 4 9 5 0 9 6 10 13 1 19 13 70 17 78 7 11 -17 17 -54 13 -42
-5 -38 -1 -45 -45 -8 -51 -16 -69 -32 -69 -9 0 -11 9 -8 33 14 77 12 81 -29
82 -21 1 -40 -2 -43 -7z"/>
<path d="M2703 1561 c-4 -20 -6 -39 -5 -43 1 -5 -2 -8 -7 -8 -6 0 -8 -9 -6
-20 2 -11 -1 -20 -7 -20 -6 0 -9 -3 -5 -6 3 -4 1 -21 -6 -38 -7 -17 -12 -41
-11 -53 1 -13 -3 -23 -8 -23 -5 0 -7 -4 -3 -9 3 -5 0 -13 -6 -17 -8 -4 -7 -9
2 -15 10 -6 11 -9 2 -9 -7 0 -13 -4 -13 -10 0 -11 150 -14 188 -4 27 8 45 40
62 111 14 63 2 82 -57 87 -41 3 -41 3 -31 81 3 28 1 29 -39 31 -41 1 -43 0
-50 -35z m83 -158 c-6 -52 -16 -73 -33 -73 -11 0 -12 8 -7 38 13 73 49 104 40
35z"/>
<path d="M2965 1590 c-4 -6 -17 -56 -31 -120 -8 -35 -10 -43 -16 -60 -8 -23
-28 -109 -28 -120 0 -6 20 -10 45 -10 38 0 49 6 44 23 0 1 5 16 11 32 7 17 14
41 16 55 3 14 10 43 16 65 6 22 11 43 10 47 -1 4 5 25 13 47 11 31 11 41 2 42
-7 0 -27 2 -45 3 -18 2 -34 0 -37 -4z"/>
<path d="M3093 1584 c-2 -7 -6 -18 -7 -26 -2 -7 -6 -20 -10 -29 -4 -9 -6 -20
-5 -25 1 -5 0 -11 -1 -14 -1 -3 -3 -12 -5 -20 -2 -8 -13 -49 -24 -90 -28 -101
-28 -100 18 -100 35 0 41 4 60 38 12 20 27 49 33 65 14 31 29 36 22 7 -7 -33
-12 -54 -19 -82 -7 -27 -6 -28 31 -28 l39 0 28 113 c16 61 30 120 32 130 2 10
6 26 9 35 8 25 -5 38 -39 37 -32 0 -34 -2 -78 -85 -16 -28 -30 -50 -32 -48 -2
2 2 32 9 66 7 34 10 62 7 63 -37 6 -64 4 -68 -7z"/>
<path d="M3441 1579 c-18 -11 -29 -24 -26 -29 3 -6 1 -10 -4 -10 -6 0 -11 -9
-11 -20 0 -16 7 -20 38 -20 42 0 57 8 57 30 0 8 8 16 18 18 19 4 22 -14 7 -53
-8 -20 -15 -25 -29 -20 -26 8 -51 -32 -30 -46 8 -5 19 -9 26 -9 11 0 11 -8 0
-64 -3 -15 -24 -36 -36 -36 -14 0 -14 16 -1 40 17 32 2 51 -39 48 -39 -3 -48
-17 -50 -75 -1 -45 33 -67 91 -60 69 9 84 17 106 55 25 45 30 90 14 120 -11
18 -10 22 3 22 29 0 50 89 27 112 -6 6 -38 13 -70 14 -44 2 -67 -2 -91 -17z"/>
<path d="M3681 1592 c-10 -3 -23 -41 -35 -102 -3 -14 -16 -67 -30 -117 l-24
-93 84 0 c120 0 147 18 158 107 3 18 8 38 13 45 4 7 8 20 8 28 0 8 3 20 6 25
3 6 6 27 8 47 2 29 -2 39 -20 49 -21 11 -144 19 -168 11z m99 -59 c0 -9 -37
-157 -46 -185 -9 -29 -31 -21 -28 10 1 15 3 28 4 30 1 1 3 5 4 10 1 4 5 16 9
27 3 11 8 32 11 48 8 49 17 67 32 67 8 0 14 -3 14 -7z"/>
<path d="M4061 1571 c-12 -30 -48 -169 -67 -258 -6 -32 -6 -33 30 -33 49 0 51
1 49 11 -2 5 2 9 9 9 6 0 8 3 5 7 -4 3 -2 12 4 20 9 10 8 13 -2 13 -10 0 -11
2 -2 8 6 4 13 20 15 35 2 15 7 27 11 27 4 0 11 0 16 0 10 0 4 -57 -9 -79 -13
-24 1 -49 31 -53 35 -5 48 2 53 29 3 11 9 36 14 55 10 36 -1 73 -19 63 -5 -4
-9 -2 -9 3 0 5 10 14 23 21 23 12 68 114 60 137 -2 5 -20 9 -40 8 -35 -1 -39
-4 -51 -40 -23 -66 -45 -105 -52 -93 -4 6 -1 32 6 57 22 71 20 78 -26 78 -33
0 -41 -4 -49 -25z"/>
<path d="M4312 1590 c-4 -3 -8 -18 -9 -35 -2 -16 -7 -31 -13 -33 -6 -2 -7 -8
-4 -13 3 -6 0 -17 -8 -26 -11 -14 -11 -16 2 -8 13 7 13 6 2 -7 -7 -9 -12 -20
-11 -24 1 -5 0 -11 -1 -14 -2 -7 -8 -31 -15 -62 -3 -15 -10 -39 -15 -53 -12
-33 -12 -38 -1 -30 5 3 12 2 15 -3 3 -5 18 -7 34 -4 24 3 35 16 66 73 21 38
39 69 41 69 4 0 -24 -120 -31 -132 -4 -5 12 -8 38 -6 34 2 43 7 42 21 -1 9 1
17 5 17 4 0 8 6 9 13 0 12 5 33 19 92 4 17 7 32 8 35 0 3 4 11 8 18 5 6 5 17
1 23 -3 6 -2 14 3 18 12 7 25 71 15 72 -63 7 -64 7 -108 -63 -24 -37 -45 -68
-47 -68 -2 0 2 21 8 48 17 62 18 65 16 77 -1 11 -57 15 -69 5z"/>
<path d="M4544 1520 c-21 -89 -21 -88 -24 -97 -2 -5 -4 -12 -5 -18 -2 -5 -4
-12 -5 -15 -1 -3 -4 -18 -6 -35 -3 -16 -8 -32 -12 -35 -17 -13 -5 -35 23 -40
54 -10 62 -3 76 66 13 64 33 89 42 53 3 -10 2 -19 -2 -19 -4 0 -7 -8 -8 -17 0
-10 -4 -33 -8 -50 l-7 -33 45 0 45 0 13 53 c8 28 14 57 15 62 1 6 3 13 4 18 1
4 3 10 4 15 1 4 5 16 9 27 7 24 17 68 24 110 5 30 4 31 -35 31 -33 0 -42 -4
-51 -23 -6 -13 -11 -32 -11 -43 0 -10 -5 -22 -10 -25 -6 -4 -8 -11 -5 -16 4
-5 -3 -9 -14 -9 -18 0 -19 3 -10 28 6 15 10 28 10 30 -1 1 -1 3 0 5 0 1 3 13
5 27 4 24 2 25 -41 25 l-44 0 -17 -75z"/>
<path d="M5054 1585 c-12 -38 -8 -50 16 -51 16 0 24 -5 22 -15 -2 -7 -4 -22
-5 -31 -1 -10 -5 -18 -10 -18 -4 0 -6 -4 -3 -8 3 -5 1 -25 -5 -45 -5 -20 -10
-40 -10 -44 -1 -5 -5 -14 -11 -20 -6 -7 -8 -13 -5 -13 3 0 2 -13 -3 -30 l-9
-30 48 0 47 0 28 118 c31 125 39 144 62 135 17 -6 43 24 39 46 -1 13 -20 16
-100 16 -57 0 -99 -4 -101 -10z"/>
<path d="M5276 1551 c-8 -25 -18 -59 -22 -76 -4 -16 -8 -34 -10 -40 -5 -16
-16 -68 -19 -85 -1 -8 -6 -23 -10 -32 -14 -34 -1 -41 74 -40 40 0 75 2 77 5 2
2 5 14 6 28 2 18 -2 24 -17 25 -11 1 -26 2 -32 3 -9 1 -10 8 -3 27 6 14 8 30
4 35 -6 10 6 13 46 11 21 -1 25 3 26 28 1 25 -2 30 -22 30 -26 0 -31 18 -14
49 6 12 17 17 33 14 17 -3 26 2 35 21 15 33 4 39 -75 41 l-62 2 -15 -46z"/>
<path d="M5489 1553 c-6 -24 -16 -43 -20 -43 -5 0 -9 -7 -9 -15 0 -8 -9 -34
-19 -58 -10 -23 -27 -62 -36 -87 -9 -25 -19 -51 -22 -57 -4 -9 9 -13 45 -13
36 0 52 4 56 16 4 10 2 13 -7 9 -6 -4 -1 3 12 14 28 25 41 20 35 -15 -4 -24
-3 -25 43 -22 45 3 47 5 49 33 3 62 16 228 19 245 5 28 -8 35 -72 35 l-62 0
-12 -42z m59 -90 c-12 -73 -14 -77 -28 -81 -10 -4 -11 3 -6 24 4 16 8 37 9 47
1 9 4 17 8 17 4 0 9 9 12 20 10 39 14 20 5 -27z"/>
<path d="M5699 1589 c-5 -3 -11 -15 -14 -28 -3 -17 2 -23 25 -27 l28 -6 -13
-44 c-7 -23 -10 -45 -7 -48 3 -4 1 -6 -4 -6 -5 0 -11 -11 -12 -24 -1 -14 -8
-43 -16 -65 -9 -27 -10 -38 -2 -34 6 4 5 0 -2 -9 -11 -14 -10 -17 5 -20 10 -2
32 -2 49 0 29 4 32 8 45 60 7 32 13 59 14 62 1 3 7 31 15 64 13 57 19 64 57
71 10 1 17 8 16 14 -2 6 2 11 8 11 6 0 9 8 7 17 -2 14 -18 17 -96 17 -51 1
-98 -1 -103 -5z"/>
<path d="M5927 1588 c-7 -4 -8 -8 -4 -8 4 0 3 -8 -2 -18 -6 -11 -12 -30 -15
-43 -3 -13 -9 -39 -15 -56 -5 -18 -7 -33 -4 -33 3 0 0 -7 -7 -15 -7 -8 -10
-15 -7 -15 3 0 0 -21 -8 -47 -22 -71 -21 -73 30 -73 25 0 45 3 46 8 1 13 7 36
18 80 11 38 15 42 44 43 18 1 36 1 40 0 36 -6 85 131 58 163 -7 9 -17 13 -22
10 -5 -3 -9 -1 -9 3 0 10 -127 11 -143 1z m103 -76 c0 -29 -16 -52 -36 -52 -9
0 -9 10 -2 40 12 46 38 55 38 12z"/>
<path d="M3886 1429 c2 -4 -3 -9 -11 -13 -8 -3 -12 -12 -9 -21 8 -20 113 -19
116 2 0 7 1 18 2 25 1 8 -17 12 -51 12 -28 1 -49 -2 -47 -5z"/>
</g>
</svg>
